<svg width="1000" height="1000" viewBox="0 0 1000 1000" fill="none" xmlns="http://www.w3.org/2000/svg">
<path d="M223.107 558.281L209.369 544.543L170.117 431.963H153.881L113.738 544.543L100 558.281H142.82L129.439 544.899L136.932 523.49H174.578L181.357 544.899L167.976 558.281H223.107ZM170.296 510.465H141.571L156.558 467.646L170.296 510.465Z" fill="black"/>
<path d="M367.56 431.963H325.633L339.192 445.522V505.47L287.809 431.963H251.59L265.15 445.522V544.721L251.59 558.281H293.518L279.958 544.721V466.575L354.001 570.234V445.522L367.56 431.963Z" fill="black"/>
<path d="M455.841 558.281L442.281 544.721V445.522L455.841 431.963H402.316L415.876 445.522V544.721L402.316 558.281H455.841Z" fill="black"/>
<path d="M636.995 558.281L623.435 544.721V445.522L636.995 431.963H599.171L567.413 488.342L535.655 431.963H493.371L506.93 445.522V544.721L493.371 558.281H535.298L521.739 544.721V460.331L559.384 527.593L597.03 460.152V544.721L583.47 558.281H636.995Z" fill="black"/>
<path d="M786.815 431.963H743.995L757.555 445.522V522.776C757.555 538.655 747.028 547.932 734.183 547.932C721.337 547.932 710.81 538.655 710.81 522.776V445.522L724.37 431.963H670.845L684.405 445.522V522.776C684.405 549.181 707.063 561.849 728.83 561.849C752.202 561.849 773.255 547.754 773.255 522.776V445.522L786.815 431.963Z" fill="black"/>
<path d="M900 521.884C900 506.362 890.901 497.619 883.764 492.624L857.002 473.89C848.795 468.181 845.227 462.472 845.227 456.049C845.227 448.02 850.936 440.883 861.105 440.883C864.495 440.883 868.421 441.954 871.275 443.916L886.084 459.795L899.643 435.709L871.989 431.07C868.064 430.357 863.246 430 860.213 430C832.916 430 821.497 448.198 821.497 464.969C821.497 475.317 825.422 486.379 841.123 497.263L867.885 515.996C871.097 518.316 875.379 522.241 875.379 530.448C875.379 544.186 865.923 550.073 857.18 550.073C853.077 550.073 848.081 548.825 844.691 546.327L828.812 528.485L815.253 554.534L843.978 559.173C848.616 559.886 853.077 560.243 857.537 560.243C888.046 560.243 900 540.796 900 521.884Z" fill="black"/>
</svg>
